<svg width="20" height="20" viewBox="0 0 20 20" fill="none" xmlns="http://www.w3.org/2000/svg">
<g opacity="0.5">
<path d="M12.9382 1.66666H7.1911C4.82041 1.66666 3.33334 3.32156 3.33334 5.97676V16.9359C3.33334 17.7077 3.94445 18.3333 4.69829 18.3333C4.92651 18.3332 5.15114 18.2751 5.35202 18.1642L10.0287 15.5678L15.4741 18.1789C15.6218 18.2424 15.788 18.2431 15.9363 18.1811C16.0845 18.119 16.2025 17.9991 16.2644 17.8479C16.3557 17.5692 16.245 17.2631 15.9986 17.1124L10.5891 14.5234C10.2357 14.3245 9.80745 14.3245 9.45403 14.5234L4.77012 17.1124C4.71641 17.1425 4.65143 17.1425 4.59771 17.1124C4.54664 17.0787 4.51662 17.0201 4.51869 16.9579V5.97676C4.52587 4.01294 5.48852 2.89497 7.21265 2.89497H12.9598C15.1724 2.89497 15.4957 4.73374 15.4957 5.83701V6.33716H9.27443C9.11626 6.3429 8.96681 6.4128 8.85901 6.53145C8.75121 6.6501 8.6939 6.80776 8.69972 6.96969C8.7073 7.2914 8.96022 7.55035 9.27443 7.5581H15.4741V13.9938C15.4741 14.331 15.7411 14.6043 16.0704 14.6043C16.3969 14.6043 16.6627 14.3355 16.6667 14.0012V5.83701C16.6667 3.26272 15.2443 1.66666 12.9382 1.66666Z" fill="#081D43"/>
</g>
</svg>
